PathFileType	4	(X/Y/Z)	/Users/itak/Documents/Research/Walk-IL/dataset/trc/00370_00011.trc
DataRate	CameraRate	NumFrames	NumMarkers	Units	OrigDataRate	OrigDataStartFrame	OrigNumFrames
100.000000	100.000000	4	57	mm	100.000000	451	516
Frame#	Time	RPSI			LPSI			L3			STRN			T10			C7			CLAV			RBAK			LBAK			LSHO			LUPA			LAEL			LAOL			LWTS			LWPS			LFRA			LIFD			LHPS			LHTS			RSHO			RUPA			RAEL			RAOL			RWPS			RFRA			RIFD			RHTS			RHPS			RBHD			LFHD			RFHD			LBHD			LHIP			RHIP			RASI			LASI			LKNE			LTHI			LANK			LTIP			LTOE			LMT1			LMT5			LHEE			RKNE			RTHI			RANK			RTIP			RTOE			RMT1			RMT5			RHEE			RWTS			*53			*54			*55			*56			
		X1	Y1	Z1	X2	Y2	Z2	X3	Y3	Z3	X4	Y4	Z4	X5	Y5	Z5	X6	Y6	Z6	X7	Y7	Z7	X8	Y8	Z8	X9	Y9	Z9	X10	Y10	Z10	X11	Y11	Z11	X12	Y12	Z12	X13	Y13	Z13	X14	Y14	Z14	X15	Y15	Z15	X16	Y16	Z16	X17	Y17	Z17	X18	Y18	Z18	X19	Y19	Z19	X20	Y20	Z20	X21	Y21	Z21	X22	Y22	Z22	X23	Y23	Z23	X24	Y24	Z24	X25	Y25	Z25	X26	Y26	Z26	X27	Y27	Z27	X28	Y28	Z28	X29	Y29	Z29	X30	Y30	Z30	X31	Y31	Z31	X32	Y32	Z32	X33	Y33	Z33	X34	Y34	Z34	X35	Y35	Z35	X36	Y36	Z36	X37	Y37	Z37	X38	Y38	Z38	X39	Y39	Z39	X40	Y40	Z40	X41	Y41	Z41	X42	Y42	Z42	X43	Y43	Z43	X44	Y44	Z44	X45	Y45	Z45	X46	Y46	Z46	X47	Y47	Z47	X48	Y48	Z48	X49	Y49	Z49	X50	Y50	Z50	X51	Y51	Z51	X52	Y52	Z52	X53	Y53	Z53	X54	Y54	Z54	X55	Y55	Z55	X56	Y56	Z56	X57	Y57	Z57	

452	4.51	57.78026580810547	972.8175048828125	993.230712890625	186.6900024414062	973.8123779296875	1003.985107421875	118.3549423217773	1024.638549804688	997.7112426757812	115.9950408935547	1234.495971679688	1209.737670898438	130.4793701171875	1143.507690429688	976.7042846679688	150.3089752197266	1395.618041992188	994.62158203125	126.8794250488281	1355.931762695312	1154.781982421875	85.6573486328125	1253.328857421875	956.564453125	251.3484497070312	1355.001342773438	996.4539794921875	298.04833984375	1381.658569335938	1084.497802734375	368.8640747070312	1262.01513671875	1088.787963867188	394.4625244140625	1068.690307617188	1151.008422851562	347.2809143066406	1036.222412109375	1087.041137695312	334.6258544921875	894.977783203125	1329.31982421875	391.7081604003906	864.7216186523438	1303.955322265625	400.2026672363281	976.5269775390625	1202.14501953125	321.3899230957031	752.6378784179688	1411.80224609375	382.1468200683594	802.2219848632812	1335.254150390625	345.9844970703125	832.7401733398438	1379.4208984375	-18.2489070892334	1391.057739257812	1034.487548828125	-79.43317413330078	1327.093139648438	1018.037475585938	-110.4837799072266	1061.618408203125	1006.529968261719	-16.94782257080078	1055.639526367188	996.0971069335938	-156.0642242431641	817.7774658203125	1062.33984375	-128.3220367431641	994.3221435546875	1024.689208984375	-118.1651382446289	654.2562866210938	1110.657470703125	-122.2311553955078	724.601318359375	1129.981811523438	-156.8647308349609	732.7254638671875	1069.629150390625	61.8610954284668	1612.850219726562	1031.934204101562	171.6779327392578	1621.299072265625	1208.808471679688	71.48152923583984	1622.29345703125	1193.579223632812	206.4291839599609	1607.150512695312	1025.80419921875	285.5512390136719	922.4395141601562	1099.254638671875	-56.27055740356445	923.6253051757812	1068.704345703125	-20.83969497680664	959.1779174804688	1174.19970703125	215.6523742675781	954.3694458007812	1213.744262695312	269.72216796875	465.5463256835938	1178.424194335938	278.8110961914062	605.3522338867188	1170.942504882812	268.7450866699219	48.5821647644043	1089.398193359375	280.2035827636719	247.2581787109375	1139.482543945312	202.8375091552734	42.38370895385742	1295.298583984375	163.4286956787109	30.29811859130859	1224.195556640625	275.9580993652344	42.55510711669922	1215.023315429688	201.4523620605469	40.14820098876953	1056.04833984375	-69.64629364013672	463.1078796386719	1153.564331054688	-77.60124969482422	728.94091796875	1177.266479492188	-71.73520660400391	52.4232292175293	1096.421752929688	-67.83367919921875	349.3562622070312	1160.412841796875	-38.88022994995117	46.37513732910156	1292.736450195312	7.681706428527832	40.59372711181641	1241.750732421875	-100.4618072509766	39.40259170532227	1193.824584960938	-18.76469802856445	54.07675170898438	1049.4912109375	-101.2664566040039	829.0599365234375	1115.718139648438	nan	nan	nan	nan	nan	nan	nan	nan	nan	nan	nan	nan	
453	4.52	55.90618896484375	973.0886840820312	995.3966674804688	184.7470397949219	973.6176147460938	1005.913452148438	116.2673645019531	1024.6240234375	999.468994140625	114.6487426757812	1234.638305664062	1211.531616210938	127.7989120483398	1143.419067382812	978.2955932617188	148.0195159912109	1395.538330078125	996.0567016601562	125.5071258544922	1355.964599609375	1156.376342773438	82.91765594482422	1253.281494140625	958.38671875	249.0101623535156	1354.869873046875	997.3657836914062	296.3325500488281	1381.371704101562	1085.197387695312	366.5372619628906	1261.2783203125	1088.873413085938	391.1458129882812	1067.502807617188	1149.978515625	343.1778869628906	1035.703247070312	1086.306884765625	332.205322265625	892.3492431640625	1327.39794921875	388.7377319335938	862.0960083007812	1301.038208007812	396.8440856933594	974.8193359375	1200.298950195312	319.1494750976562	749.2216796875	1408.442993164062	379.2168579101562	799.2598266601562	1331.656494140625	343.7557678222656	829.449951171875	1376.559692382812	-20.30582427978516	1391.169555664062	1036.873901367188	-81.82151031494141	1327.212158203125	1021.204895019531	-113.7989654541016	1061.679077148438	1011.5947265625	-20.52760696411133	1055.581787109375	999.208251953125	-158.1656036376953	818.10693359375	1069.639526367188	-131.254150390625	994.4559326171875	1030.471435546875	-119.1598434448242	654.7709350585938	1117.714965820312	-122.8301162719727	725.2822265625	1136.953125	-158.7814025878906	733.1512451171875	1077.265258789062	60.03260803222656	1612.803833007812	1033.548706054688	170.5510406494141	1621.394897460938	1209.936157226562	70.29008483886719	1622.465698242188	1195.090698242188	204.6039733886719	1606.86572265625	1026.834350585938	283.5680236816406	922.1629638671875	1101.15283203125	-58.38407135009766	924.071044921875	1070.924438476562	-22.77607536315918	959.6602783203125	1176.398681640625	213.8117065429688	954.49072265625	1215.6123046875	267.9822692871094	465.6470031738281	1180.061767578125	276.8734436035156	605.2881469726562	1172.821655273438	268.3923034667969	48.73956298828125	1089.510131835938	279.1560974121094	247.5777587890625	1140.095703125	202.7779235839844	42.38205337524414	1295.361694335938	163.3886108398438	30.22595405578613	1224.228393554688	275.9101867675781	42.67420196533203	1215.059936523438	201.1405181884766	40.18455123901367	1056.21484375	-70.59431457519531	463.5414733886719	1151.449462890625	-79.26326751708984	729.1275024414062	1179.107177734375	-71.55699920654297	52.39268493652344	1096.177734375	-68.69807434082031	349.5828857421875	1158.801025390625	-38.79804229736328	46.44668197631836	1292.485595703125	7.780580520629883	40.6019287109375	1241.5400390625	-100.3307037353516	39.43246459960938	1193.6015625	-18.51202011108398	54.03277587890625	1049.218872070312	-102.2810668945312	829.6675415039062	1121.766723632812	nan	nan	nan	nan	nan	nan	nan	nan	nan	nan	nan	nan	
454	4.53	54.17404556274414	973.5180053710938	997.4795532226562	182.9024047851562	973.4331665039062	1007.787475585938	114.3526840209961	1024.672607421875	1001.155334472656	113.3462982177734	1234.842529296875	1213.25244140625	125.3416976928711	1143.355590820312	979.8223876953125	145.8256378173828	1395.481689453125	997.4749145507812	124.1570892333984	1356.042358398438	1157.93505859375	80.37254333496094	1253.27001953125	960.152587890625	246.7720947265625	1354.831665039062	998.3151245117188	294.6419982910156	1381.202514648438	1085.955200195312	364.2506713867188	1260.696411132812	1089.052490234375	387.7111511230469	1066.410766601562	1148.816650390625	338.9456176757812	1035.3896484375	1085.422119140625	329.7241821289062	889.5420532226562	1325.091918945312	385.6351928710938	859.2858276367188	1297.635498046875	393.3577270507812	973.1342163085938	1198.176513671875	316.8333435058594	745.4893188476562	1404.44921875	376.1845092773438	796.1129760742188	1327.448486328125	341.4895935058594	825.8456420898438	1373.170288085938	-22.27356147766113	1391.295288085938	1039.126098632812	-84.09709930419922	1327.411865234375	1024.186767578125	-117.1828002929688	1061.878051757812	1016.503845214844	-24.25250053405762	1055.553466796875	1002.090759277344	-160.3013305664062	818.6607055664062	1077.163818359375	-134.2196502685547	994.7320556640625	1036.17578125	-120.2648010253906	655.524169921875	1125.099487304688	-123.423698425293	726.256103515625	1144.119506835938	-160.8201751708984	733.8121948242188	1085.243896484375	58.17842864990234	1612.748291015625	1035.11376953125	169.3808746337891	1621.4951171875	1211.030151367188	69.06230926513672	1622.632080078125	1196.5654296875	202.7624816894531	1606.617797851562	1027.84716796875	281.6590270996094	921.8624877929688	1102.947998046875	-60.42307281494141	924.7684326171875	1073.02734375	-24.63186454772949	960.340576171875	1178.476806640625	212.0350036621094	954.611328125	1217.427368164062	266.2818908691406	465.7765808105469	1181.530151367188	274.9245300292969	605.2159423828125	1174.59521484375	268.0201110839844	48.91354370117188	1089.625244140625	278.1510925292969	247.9116363525391	1140.639404296875	202.7078857421875	42.37231063842773	1295.434692382812	163.3401947021484	30.14066886901855	1224.256713867188	275.8609619140625	42.80198287963867	1215.0966796875	200.7916870117188	40.21472930908203	1056.385375976562	-71.56055450439453	464.2590637207031	1149.160888671875	-80.84444427490234	729.5117797851562	1180.826782226562	-71.40607452392578	52.38458251953125	1095.982421875	-69.69089508056641	349.8815002441406	1157.125854492188	-38.76511383056641	46.55542373657227	1292.2890625	7.781695365905762	40.6773681640625	1241.377075195312	-100.2923965454102	39.47330093383789	1193.437255859375	-18.33803367614746	53.97898483276367	1049.011474609375	-103.2383575439453	830.4932250976562	1127.820556640625	nan	nan	nan	nan	nan	nan	nan	nan	nan	nan	nan	nan	
455	4.54	52.53219985961914	974.0535888671875	999.493408203125	181.1253356933594	973.2594604492188	1009.604858398438	112.5709762573242	1024.746215820312	1002.796142578125	112.097770690918	1235.083618164062	1214.907104492188	123.1166458129883	1143.29443359375	981.2957763671875	143.7463836669922	1395.424682617188	998.8795166015625	122.8273468017578	1356.14697265625	1159.453857421875	78.02346038818359	1253.263916015625	961.8527221679688	244.6491088867188	1354.848999023438	999.3018188476562	292.99560546875	1381.126831054688	1086.772705078125	362.0347595214844	1260.247802734375	1089.333862304688	384.2042846679688	1065.403076171875	1147.55224609375	334.6372375488281	1035.265258789062	1084.400268554688	327.1484985351562	886.5518188476562	1322.421020507812	382.4074096679688	856.3003540039062	1293.8125	389.7801818847656	971.4730834960938	1195.82958984375	314.3995361328125	741.4525146484375	1399.833984375	373.0453186035156	792.798828125	1322.693603515625	339.1602172851562	821.930419921875	1369.300415039062	-24.13878059387207	1391.4130859375	1041.2314453125	-86.25048065185547	1327.664306640625	1026.964599609375	-120.6104736328125	1062.193115234375	1021.212768554688	-28.08789253234863	1055.533203125	1004.722351074219	-162.4366455078125	819.4428100585938	1084.900634765625	-137.1933135986328	995.1271362304688	1041.763305664062	-121.4604339599609	656.5105590820312	1132.76611328125	-123.9499130249023	727.4979858398438	1151.41015625	-162.9480895996094	734.7054443359375	1093.555541992188	56.30603408813477	1612.66748046875	1036.621459960938	168.1750793457031	1621.584594726562	1212.098876953125	67.80598449707031	1622.774536132812	1198.005249023438	200.913818359375	1606.402221679688	1028.84619140625	279.8056945800781	921.5421752929688	1104.652709960938	-62.38224792480469	925.6185913085938	1075.047607421875	-26.40347862243652	961.1348876953125	1180.4697265625	210.3180847167969	954.711669921875	1219.189086914062	264.6736450195312	465.9156188964844	1182.81005859375	273.0261840820312	605.13671875	1176.211181640625	267.6519775390625	49.09657669067383	1089.72607421875	277.2059326171875	248.2457427978516	1141.098266601562	202.6347198486328	42.35821533203125	1295.506713867188	163.2891235351562	30.05278968811035	1224.27734375	275.81103515625	42.93390274047852	1215.130737304688	200.4317626953125	40.24143981933594	1056.5419921875	-72.56662750244141	465.113525390625	1146.810791015625	-82.34117889404297	730.0099487304688	1182.461303710938	-71.29840087890625	52.36865234375	1095.821899414062	-70.812255859375	350.1729736328125	1155.427490234375	-38.7781982421875	46.66245651245117	1292.13427734375	7.684285163879395	40.80938339233398	1241.250610351562	-100.3493041992188	39.4984130859375	1193.326293945312	-18.28442192077637	53.89728164672852	1048.853515625	-104.0864562988281	831.5076904296875	1133.814575195312	nan	nan	nan	nan	nan	nan	nan	nan	nan	nan	nan	nan	
